# xmcd CD database file
#
# Track frame offsets:
#	225
#	13792
#	31824
#	48497
#	64704
#	76660
#	100531
#	116707
#	135662
#
# Disc length: 2154 seconds
#
# Revision: 0
# Processed by: cddbd v1.5.1PL0 Copyright (c) Steve Scherf et al.
# Submitted via: CDex 1.50
#
DISCID=68086709
DTITLE=Jeff Siegrist Band - Please, Please, Please
DYEAR=1997
DGENRE=Blues
TTITLE0=I Can't Stand The Weather
TTITLE1=22
TTITLE2=Summer of 1996
TTITLE3=Rooftop Tomcat
TTITLE4=Black Tears
TTITLE5=Please, Please, Please
TTITLE6=Train
TTITLE7=Handicapped People
TTITLE8=Unborn Child
EXTD=YEAR: 1997
EXTT0=
EXTT1=
EXTT2=
EXTT3=
EXTT4=
EXTT5=
EXTT6=
EXTT7=
EXTT8=
PLAYORDER=
